<svg id="Layer_1" data-name="Layer 1" xmlns="http://www.w3.org/2000/svg" viewBox="0 0 10.97 23.53"><defs><style>.cls-1{fill:#f05822;}</style></defs><path class="cls-1" d="M7,23.53H2.39c0-.17,0-.34,0-.52V12.3c0-.55,0-.55-.56-.56s-1,0-1.48,0A.45.45,0,0,1,0,11.46C0,10,0,8.59,0,7.07H1.31c1,0,1,0,1-1a13.66,13.66,0,0,1,.17-2.56,4.09,4.09,0,0,1,4-3.44c1.45-.1,2.9,0,4.39,0V4H8.79c-.21,0-.42,0-.63,0a.94.94,0,0,0-.92.93c0,.61,0,1.21,0,1.82,0,.29.16.31.38.31H11c-.1,1.1-.2,2.13-.29,3.17,0,.38-.1.76-.11,1.14s-.14.37-.41.37c-.88,0-1.75,0-2.63,0-.42,0-.51.13-.51.53,0,3.55,0,7.11,0,10.66C7,23.13,7,23.32,7,23.53Z"/></svg>