<svg id="Component_10_2" data-name="Component 10 – 2" xmlns="http://www.w3.org/2000/svg" width="25.505" height="25.504" viewBox="0 0 25.505 25.504">
  <g id="Group_771" data-name="Group 771">
    <path id="Path_2073" data-name="Path 2073" d="M418.036,4799.346h-9.788a7.859,7.859,0,0,0-7.859,7.858v9.791a7.857,7.857,0,0,0,7.859,7.856h9.788a7.855,7.855,0,0,0,7.859-7.856V4807.2A7.857,7.857,0,0,0,418.036,4799.346Zm5.411,16.708a6.346,6.346,0,0,1-6.348,6.348h-7.912a6.346,6.346,0,0,1-6.348-6.348v-7.91a6.351,6.351,0,0,1,6.348-6.351H417.1a6.351,6.351,0,0,1,6.348,6.351Z" transform="translate(-400.39 -4799.346)" fill="#f15822"/>
    <path id="Path_2074" data-name="Path 2074" d="M409.975,4801.627a7.192,7.192,0,1,0,7.192,7.191A7.19,7.19,0,0,0,409.975,4801.627Zm0,11.517a4.326,4.326,0,1,1,4.326-4.326A4.325,4.325,0,0,1,409.975,4813.144Z" transform="translate(-396.908 -4796.025)" fill="#f15822"/>
    <path id="Path_2075" data-name="Path 2075" d="M408.585,4800.945a1.575,1.575,0,1,0,1.576,1.576A1.576,1.576,0,0,0,408.585,4800.945Z" transform="translate(-389.158 -4796.629)" fill="#f15822"/>
  </g>
</svg>
