<svg id="_220323" data-name="220323" xmlns="http://www.w3.org/2000/svg" xmlns:xlink="http://www.w3.org/1999/xlink" viewBox="0 0 124.36 114.36"><defs><style>.cls-1{fill:url(#New_Gradient_Swatch_1);}.cls-2{fill:url(#New_Gradient_Swatch_1-2);}.cls-3{fill:url(#New_Gradient_Swatch_1-3);}.cls-4{fill:url(#New_Gradient_Swatch_1-4);}.cls-5{fill:url(#New_Gradient_Swatch_1-5);}.cls-6{fill:url(#New_Gradient_Swatch_1-6);}.cls-7{fill:url(#New_Gradient_Swatch_1-7);}.cls-8{fill:url(#New_Gradient_Swatch_1-8);}.cls-9{fill:#231f20;}.cls-10{fill:#f15822;}.cls-11{fill:#c8da2b;}</style><linearGradient id="New_Gradient_Swatch_1" x1="42.84" y1="-0.03" x2="100.39" y2="111.81" gradientUnits="userSpaceOnUse"><stop offset="0.13" stop-color="#c8cacc"/><stop offset="0.3" stop-color="#696a6c"/><stop offset="0.54" stop-color="#fff"/><stop offset="1"/></linearGradient><linearGradient id="New_Gradient_Swatch_1-2" x1="43.62" y1="-0.44" x2="101.17" y2="111.41" xlink:href="#New_Gradient_Swatch_1"/><linearGradient id="New_Gradient_Swatch_1-3" x1="42.4" y1="0.19" x2="99.95" y2="112.04" xlink:href="#New_Gradient_Swatch_1"/><linearGradient id="New_Gradient_Swatch_1-4" x1="43.18" y1="-0.21" x2="100.74" y2="111.63" xlink:href="#New_Gradient_Swatch_1"/><linearGradient id="New_Gradient_Swatch_1-5" x1="66.88" y1="-12.4" x2="124.43" y2="99.44" xlink:href="#New_Gradient_Swatch_1"/><linearGradient id="New_Gradient_Swatch_1-6" x1="98.02" y1="-28.43" x2="155.57" y2="83.42" xlink:href="#New_Gradient_Swatch_1"/><linearGradient id="New_Gradient_Swatch_1-7" x1="29.64" y1="6.76" x2="87.19" y2="118.6" xlink:href="#New_Gradient_Swatch_1"/><linearGradient id="New_Gradient_Swatch_1-8" x1="51.28" y1="71.5" x2="78.15" y2="136.78" xlink:href="#New_Gradient_Swatch_1"/></defs><path class="cls-1" d="M29.34,68.14h-.81a28.21,28.21,0,0,1-6.28-55.5l0-.13,2.59-.42,53-8.4-1.66,5.5,34.38-5.6,1.79,4.54L73.08,34.52V57.08L56.79,64.85l0-18.48c-.1.41-.21.83-.33,1.24A28.28,28.28,0,0,1,29.34,68.14Zm-1.6-37.95a9.93,9.93,0,0,0-8.5,9.63v.38a10.19,10.19,0,0,0,6.94,9.33L30.65,35l16.77-2.78,1.67-5.41ZM56.68,33c0,.18.09.36.13.54V31.84l-.41.07Z"/><path class="cls-2" d="M110.9,6.05,72.56,12.29l1.67-5.51-49,7.77h0A25.68,25.68,0,1,0,54.26,33.62L32.59,37.21l-4.3,14,9-1.5a12.6,12.6,0,0,1-20.55-9.46v-.46A12.49,12.49,0,0,1,27.35,27.72L38.14,26l11.51-1.82,3-.48-2,6.61,8.69-1.41,0,32L70.58,55.5V27l4.57-.72-1.46,4.77Z"/><path class="cls-3" d="M28.2,67h-.81a28.21,28.21,0,0,1-6.24-55.51l0-.12,2.55-.42,53-8.4L75,8l34.38-5.6L111.16,7,71.94,33.38V55.94L55.65,63.71l0-18.48c-.1.42-.21.83-.32,1.24A28.3,28.3,0,0,1,28.2,67ZM26.6,29.05a10,10,0,0,0-8.5,9.63v.37a10.19,10.19,0,0,0,7,9.34l4.47-14.53,16.77-2.78L48,25.67Zm28.95,2.82c0,.18.09.36.13.54v-1.7l-.41.06Z"/><path class="cls-4" d="M109.76,4.91,71.42,11.15l1.67-5.51-49,7.77h0A25.72,25.72,0,1,0,53.12,32.48l-21.67,3.6-4.3,14,9-1.5A12.6,12.6,0,0,1,15.6,39.11v-.46A12.47,12.47,0,0,1,26.21,26.59L37,24.87l11.51-1.82,3-.48-2,6.61,8.69-1.41,0,32,11.28-5.39V25.9L74,25.18,72.55,30Z"/><polygon class="cls-5" points="71.25 3.4 77.06 6.05 78.2 2.3 71.25 3.4"/><polygon class="cls-6" points="102.74 3.52 107.51 11.34 124.36 0 102.74 3.52"/><polygon class="cls-7" points="55.66 57.45 55.66 65.39 62.32 62.21 55.66 57.45"/><path class="cls-8" d="M96.27,99.46a1.61,1.61,0,0,1,.48,1.5,1.7,1.7,0,0,1-1.49,1.38l-2.54.4a2.85,2.85,0,0,1-.46,0,1.57,1.57,0,0,1-.58-.1,1.8,1.8,0,0,1-.75-.49L87.52,99a.2.2,0,0,0-.12-.08h-.13a5.05,5.05,0,0,0-.76.07l-1.9.3-.16,3.28a1.84,1.84,0,0,1-1.63,1.74l-2.15.34-.36,0a1.71,1.71,0,0,1-1.24-.51l0,0,0,0a0,0,0,0,1,0,0s0,0,0,0l0,0,0,0,0,0s0,0,0,0,0,0,0,0l-.05,0,0,0,0,0a0,0,0,0,1,0,0l0,0,0,0,0,0v0l0,0a2.64,2.64,0,0,1-.61.92,4,4,0,0,1-2.1.91l-1.7.27c-.37,0-.67.09-.91.1H73a2.84,2.84,0,0,1-1.65-.5,6.25,6.25,0,0,1-.69-.58L65.25,99.6l-.29,6a1.82,1.82,0,0,1-1.63,1.74l-2.09.33-.36,0a1.71,1.71,0,0,1-1.25-.51,0,0,0,0,0,0,0s0,0,0,0,0,0,0,0l0,0a0,0,0,0,1,0,0l-.06,0v0l-.05,0a0,0,0,0,1,0,0l-.06,0a0,0,0,0,0,0,0l0,0a1.8,1.8,0,0,1-1.55,1.42l-2.15.34-.35,0h0a1.71,1.71,0,0,1-1.11-.39,1.78,1.78,0,0,1-1.27.79l-2.55.4a2.85,2.85,0,0,1-.46,0,1.73,1.73,0,0,1-1.32-.58l-2.43-2.33-4.61.73-.1,2.07a1.82,1.82,0,0,1-1.63,1.73l-2.15.34-.36,0A1.71,1.71,0,0,1,36,111l0,0,0,0s0,0,0,0l-.05,0,0,0,0,0,0,0s0,0,0,0l0,0,0,0,0,0s0,0,0,0l0,0,0,0s0,0,0,0,0,0,0,0l0,0-.05,0s0,0,0,0l0,0s0,0,0,0l0,0,0,0,0,0a1.46,1.46,0,0,1-.31-.48,5.44,5.44,0,0,1-.91,1,7.8,7.8,0,0,1-2.35,1.38,16,16,0,0,1-3.06.78l-9.3,1.46a2,2,0,0,1-.4,0,1.79,1.79,0,0,1-1.32-.54l0,0-.05,0s0,0,0,0l0,0s0,0,0,0l-.05,0,0,0,0,0s0,0,0,0l-.05,0,0,0,0,0,0,0s0,0,0,0l0,0,0,0,0,0,0,0,0,0-.05,0,0,0,0,0,0,0-.05,0a1.79,1.79,0,0,1-.47-1.33l.5-10.31a2,2,0,0,1,1.8-1.89L27.87,98a15.36,15.36,0,0,1,2.38-.21q.36,0,.69,0a5.45,5.45,0,0,1,2.49.73A4.81,4.81,0,0,1,34,99l.06.06a.46.46,0,0,1,.07.07l.06.06.07.07.06.07.07.06.07.07.06.06a.46.46,0,0,0,.07.07l.06.06s0,0,.07.07a3.58,3.58,0,0,1,.43.44l.08-1.7A2,2,0,0,1,37,96.59L47.7,94.9a11.24,11.24,0,0,1,1.65-.14,4.33,4.33,0,0,1,2.62.71,2.1,2.1,0,0,1,.37.31l.07.07.06.06.07.07.06.06.07.07.06.06a.46.46,0,0,1,.07.07l.06.06a.46.46,0,0,1,.07.07l.07.06.06.07s.07.08.11.11l0-1.1a1.85,1.85,0,0,1,1.66-1.74L57,93.43l.35,0a1.71,1.71,0,0,1,1.24.51l0,0,0,0v0l.05,0s0,0,0,0l.05,0a0,0,0,0,0,0,0s0,0,0,.05,0,0,0,0l0,0a0,0,0,0,1,0,0,.1.1,0,0,1,0,0l0,0,0,0,0,0,0,0s0,0,0,0l0,0a2.77,2.77,0,0,1,.6-.92,3.91,3.91,0,0,1,2.1-.9l1.75-.28c.38-.06.69-.09.93-.11h.21a3,3,0,0,1,.81.1,2.8,2.8,0,0,1,.88.44,4.36,4.36,0,0,1,.63.54l5.35,5.1.29-6a1.81,1.81,0,0,1,1.64-1.73l2.08-.33.35,0a1.71,1.71,0,0,1,1.24.51s0,0,0,0l0,0s0,0,0,0l.05,0s0,0,0,0,0,0,0,0,0,0,0,0l0,0a0,0,0,0,0,0,0s0,0,.05.05l0,0,0,0A1.81,1.81,0,0,1,80,89.81l2.14-.34.35,0a1.67,1.67,0,0,1,1.24.51l0,0a.08.08,0,0,1,0,0l0,0,0,0,0,0,.05,0,0,0,0,0,0,0,0,0,0,0,0,0,0,0,0,0,0,0s0,0,0,0l0,0,0,0,0,0,0,0s0,0,0,0l0,0,0,0,0,0A1.65,1.65,0,0,1,85,92l-.08,1.65.28,0c.28,0,.51-.09.69-.13a.91.91,0,0,0,.27-.09.65.65,0,0,0,.15-.1,4.22,4.22,0,0,0,.3-.3l3.58-4.22a2,2,0,0,1,.53-.47,2.37,2.37,0,0,1,.9-.31l2.47-.39.33,0a1.56,1.56,0,0,1,1.28.62l.07.06a.46.46,0,0,0,.07.07s0,0,.06.07l.07.06s0,0,.07.07l.06.06s0,0,.07.07l.06.06a.46.46,0,0,0,.07.07s0,0,.06.07l.07.06a1.56,1.56,0,0,1,.29.5A1.65,1.65,0,0,1,96.37,91l-4.11,4.72,3.22,3a0,0,0,0,1,0,0l0,0,0,0,0,0,0,0,0,0,0,0,0,0,0,0,0,0,0,0,0,0,0,0,0,0,0,0,.05,0a0,0,0,0,0,0,0l0,0,0,0,0,0s0,0,0,0l0,0,0,0Zm14.86-28a1.64,1.64,0,0,0-.29-.35l-.07-.07-.06-.06a.46.46,0,0,0-.07-.07l-.06-.06-.07-.07a.46.46,0,0,0-.07-.07l-.06-.06a.23.23,0,0,0-.07-.07l-.06-.06a497582161912.88,497582161912.88,0,0,0-.14-.14,1.57,1.57,0,0,0-1.14-.48l-.28,0-2.6.41a2.08,2.08,0,0,0-1.34.75l-4.65,5.5L96.22,72.7a1.82,1.82,0,0,0-1.38-.61l-.36,0-2.66.42a1.65,1.65,0,0,0-.95.49,1.74,1.74,0,0,0-.79-.19l-.34,0L79.66,74.46a14.63,14.63,0,0,0-2.85.71,6.86,6.86,0,0,0-2.19,1.27,5.4,5.4,0,0,0-1.22,1.63l-.16-.17-.07-.07-.06-.06L73,77.7,73,77.63l-.06-.06a.46.46,0,0,0-.07-.07l-.06-.06-.07-.07-.06-.06a.46.46,0,0,1-.07-.07l-.06-.06a2.38,2.38,0,0,0-.36-.3,4.33,4.33,0,0,0-2.62-.71,11.24,11.24,0,0,0-1.65.14L57.22,78a2.07,2.07,0,0,0-1.6,1.13l0,0s0,0,0,0l-.05,0s0,0,0,0a1.7,1.7,0,0,0-1.25-.52l-.36,0L45.14,79.9a14.8,14.8,0,0,0-2.85.71,6.8,6.8,0,0,0-2.19,1.28,5.34,5.34,0,0,0-.84.94,1.49,1.49,0,0,0-.24-.32s0,0,0,0l0,0s0,0,0,0l0,0s0,0,0,0l0,0a.08.08,0,0,1,0,0l0,0,0,0,0,0-.05,0s0,0,0,0l0,0s0,0,0,0l0,0,0,0,0,0s0,0,0,0l0,0,0,0,0,0,0,0s0,0,0,0l0,0A1.67,1.67,0,0,0,37,81.21l-.35,0-2.09.33a1.84,1.84,0,0,0-1.63,1.74l-.29,6-5.35-5.11a5.45,5.45,0,0,0-.63-.55,3.13,3.13,0,0,0-.88-.43,3,3,0,0,0-.81-.1h-.2c-.25,0-.56,0-.93.11l-1.75.28a4,4,0,0,0-2.1.91,2.34,2.34,0,0,0-.48.64h0a0,0,0,0,0,0,0l0,0,0,0-.05,0v0l-.05,0s0,0,0,0,0,0-.05-.05a0,0,0,0,1,0,0l-.05,0,0,0a1.7,1.7,0,0,0-1.25-.51l-.35,0L8.81,85.63A14.68,14.68,0,0,0,6,86.34a6.75,6.75,0,0,0-2.2,1.28,5.15,5.15,0,0,0-1.4,2,7.74,7.74,0,0,0-.51,2.48l-.13,2.77A6.32,6.32,0,0,0,2,97.3a3.73,3.73,0,0,0,1,1.54l.07.06.06.07.07.06.06.07.07.06a.23.23,0,0,0,.07.07l.06.07.07.06.06.07.07.06.06.07a4.34,4.34,0,0,0,.54.42,4.92,4.92,0,0,0,2.35.67l.51,0a15.09,15.09,0,0,0,2.34-.21l8.74-1.38A1.9,1.9,0,0,0,19.73,98h0s0,0,0,0l0,0s0,0,0,0a1.71,1.71,0,0,0,1.25.51l.36,0,2.09-.32a1.83,1.83,0,0,0,1.63-1.74l.29-6,5.38,5.11a5.42,5.42,0,0,0,.68.58,3,3,0,0,0,.9.41,3.1,3.1,0,0,0,.76.09h.2a7.35,7.35,0,0,0,.91-.1L36,96.28a4,4,0,0,0,2.1-.91A3.31,3.31,0,0,0,39,93v-.24a2.58,2.58,0,0,0,.32.34l.07.06.06.07.07.06.06.07.07.07.06.06a.46.46,0,0,1,.07.07l.06.06.07.07.06.06a.46.46,0,0,1,.07.07,3.24,3.24,0,0,0,.54.42,4.92,4.92,0,0,0,2.35.67l.51,0a15.09,15.09,0,0,0,2.34-.21l8.74-1.38a1.9,1.9,0,0,0,1.5-1.09h0l0,0,0,0,0,0a1.71,1.71,0,0,0,1.25.51,1.54,1.54,0,0,0,.36,0l2.15-.33a1.82,1.82,0,0,0,1.63-1.74l.1-2.07L66.25,88l2.43,2.33a1.94,1.94,0,0,0,.76.5,2.07,2.07,0,0,0,.57.08,2.74,2.74,0,0,0,.45,0l2.56-.4a1.75,1.75,0,0,0,1.46-1.2,1.69,1.69,0,0,0,0-1,3.91,3.91,0,0,0,.69.59,4.92,4.92,0,0,0,2.35.67H78a16.41,16.41,0,0,0,2.34-.2l8-1.27A4.69,4.69,0,0,0,91,86.79a4.31,4.31,0,0,0,1.14-2.94l.18-3.75a1.77,1.77,0,0,0-.47-1.34l0,0,0,0,0,0s0,0,0,0l0,0,0,0,0,0,0,0,0,0A1.79,1.79,0,0,0,92.48,77v-.11l4.62,4.41L97,83.69a1.7,1.7,0,0,0,.45,1.25l0,0s0,0,0,0l0,0,0,0s0,0,0,0,0,0,0,0l.05,0,0,0s0,0,0,0l0,0,0,0s0,0,0,0l0,0,0,0s0,0,0,0l0,0,.05,0s0,0,0,0,0,0,0,0l0,0,0,0s0,0,0,0,0,0,0,0,0,0,0,0a1.71,1.71,0,0,0,1.25.51l.36,0,2.15-.34a1.82,1.82,0,0,0,1.63-1.74l.13-2.61,7.2-8.29A1.59,1.59,0,0,0,111.13,71.42Z"/><path class="cls-9" d="M18.56,86.42c.3,0,.45,0,.44.28l-.08,1.53c0,.24-.17.38-.47.43L9.77,90a6.43,6.43,0,0,0-1.29.31,2.3,2.3,0,0,0-.83.48,1.63,1.63,0,0,0-.46.74A4.08,4.08,0,0,0,7,92.64v.16L18.24,91c.29,0,.43,0,.42.28l-.06,1.28c0,.23-.17.37-.46.42L6.91,94.78v.27a3.61,3.61,0,0,0,.07,1,1.05,1.05,0,0,0,.39.61,1.55,1.55,0,0,0,.8.22,6.24,6.24,0,0,0,1.28-.09l8.68-1.37c.31,0,.45,0,.44.28l-.07,1.53c0,.24-.17.38-.47.43L9.27,99.08a12.85,12.85,0,0,1-2.55.17A3.45,3.45,0,0,1,5,98.79a2.21,2.21,0,0,1-.92-1.17,5.44,5.44,0,0,1-.21-1.92l.14-2.77a5.93,5.93,0,0,1,.4-2,3.89,3.89,0,0,1,1-1.47,5.53,5.53,0,0,1,1.76-1,13.19,13.19,0,0,1,2.57-.64Z"/><path class="cls-9" d="M24.84,85.43a7.64,7.64,0,0,1,.79-.09,1.56,1.56,0,0,1,.55,0,1.19,1.19,0,0,1,.44.21,4,4,0,0,1,.48.42l7,6.69a.25.25,0,0,0,.26.07l.17,0a.18.18,0,0,0,.17-.19l.41-8.41c0-.23.16-.38.45-.42l2.09-.33c.29,0,.43,0,.42.28l-.45,9.25a2,2,0,0,1-.5,1.4,2.68,2.68,0,0,1-1.37.56l-1.71.27c-.3,0-.56.07-.76.08a1.56,1.56,0,0,1-.54,0A1.32,1.32,0,0,1,32.3,95a4,4,0,0,1-.51-.42l-7-6.69a.3.3,0,0,0-.25-.07l-.18,0a.19.19,0,0,0-.17.19l-.4,8.41c0,.24-.17.38-.46.42l-2.09.33c-.3,0-.45,0-.43-.28l.44-9.25a1.94,1.94,0,0,1,.5-1.39,2.52,2.52,0,0,1,1.37-.56Z"/><path class="cls-9" d="M54.89,80.69c.3,0,.45,0,.44.28l-.08,1.53c0,.24-.17.38-.47.43L46.09,84.3a6.49,6.49,0,0,0-1.28.31,2.3,2.3,0,0,0-.83.48,1.63,1.63,0,0,0-.46.74,4.08,4.08,0,0,0-.17,1.08v.16L54.57,85.3c.29,0,.43,0,.42.28l-.06,1.28c0,.23-.17.37-.46.42L43.24,89.05v.27a3.61,3.61,0,0,0,.07,1,.94.94,0,0,0,.39.61,1.55,1.55,0,0,0,.8.22,6.28,6.28,0,0,0,1.28-.09l8.68-1.37c.31,0,.45,0,.44.28l-.07,1.53c0,.24-.17.38-.48.43L45.6,93.35a13.77,13.77,0,0,1-2.55.18,3.52,3.52,0,0,1-1.69-.47,2.17,2.17,0,0,1-.91-1.16A5.1,5.1,0,0,1,40.24,90l.13-2.77a6.22,6.22,0,0,1,.41-2,3.89,3.89,0,0,1,1-1.47,5.43,5.43,0,0,1,1.76-1,13.19,13.19,0,0,1,2.57-.64Z"/><path class="cls-9" d="M68.9,78.48a4.57,4.57,0,0,1,3.24.32A2.53,2.53,0,0,1,73,81.13L73,82a4,4,0,0,1-.8,2.31,4.53,4.53,0,0,1-2.32,1.38l3.23,2.88c.07,0,.08.12,0,.23s-.14.19-.32.22l-2.57.4a.83.83,0,0,1-.35,0,.46.46,0,0,1-.19-.13l-3-2.86-6.42,1-.16,3.2q0,.36-.45.42l-2.15.34c-.3.05-.45,0-.44-.28l.51-10.44c0-.32.22-.51.62-.57Zm-8.51,7L68,84.33a2.69,2.69,0,0,0,1.45-.58,1.62,1.62,0,0,0,.47-1.15l0-.67a1.06,1.06,0,0,0-.36-1,1.93,1.93,0,0,0-1.41-.13L60.82,82c-.17,0-.26.1-.27.23Z"/><path class="cls-9" d="M90.74,75c.29-.05.43,0,.42.28l-.08,1.58c0,.25-.16.4-.45.44l-10,1.57a7.42,7.42,0,0,0-1.29.31,2.25,2.25,0,0,0-.82.48,1.79,1.79,0,0,0-.46.73,4.06,4.06,0,0,0-.18,1.09l-.11,2.32a3.6,3.6,0,0,0,.08,1,1.05,1.05,0,0,0,.39.61,1.57,1.57,0,0,0,.79.23,7.19,7.19,0,0,0,1.28-.1l6.56-1a1.28,1.28,0,0,0,.76-.33,1.2,1.2,0,0,0,.28-.81l.06-1.3c0-.14-.07-.2-.23-.17L82,82.9c-.29,0-.43-.06-.42-.31l.06-1.2c0-.25.16-.4.45-.44l8.29-1.31q.6-.09.57.39l-.18,3.75a2.87,2.87,0,0,1-.73,2,3.29,3.29,0,0,1-1.85.85l-8,1.26a12.22,12.22,0,0,1-2.55.18,3.52,3.52,0,0,1-1.69-.46A2.24,2.24,0,0,1,75,86.45a5,5,0,0,1-.21-1.92l.13-2.77a6,6,0,0,1,.41-2,3.85,3.85,0,0,1,1-1.46,5.43,5.43,0,0,1,1.76-1,13,13,0,0,1,2.57-.64Z"/><path class="cls-9" d="M95.49,74.29a.49.49,0,0,1,.46.12l5,5,5.63-6.66a.69.69,0,0,1,.48-.27l2.61-.41a.19.19,0,0,1,.21.07c0,.06,0,.14,0,.22L102.36,81l-.14,3.1c0,.23-.17.37-.46.42l-2.15.34c-.3,0-.45,0-.44-.28l.15-3.1-6.69-6.39a.17.17,0,0,1,0-.21.29.29,0,0,1,.23-.14Z"/><path class="cls-9" d="M28.87,100.2a12,12,0,0,1,2.75-.17,4,4,0,0,1,1.85.52,2.45,2.45,0,0,1,1,1.25,4.8,4.8,0,0,1,.25,2l-.1,2.19a6.06,6.06,0,0,1-.45,2.09A4.22,4.22,0,0,1,33,109.65a6.29,6.29,0,0,1-1.93,1.12,13.61,13.61,0,0,1-2.77.7L19,112.94q-.6.09-.57-.39L19,102.24c0-.32.22-.51.62-.57Zm-7.28,9.91c0,.14.08.19.25.17l6.52-1a7.52,7.52,0,0,0,1.47-.36,3,3,0,0,0,1-.57,2.18,2.18,0,0,0,.56-.86,4.16,4.16,0,0,0,.22-1.22l.08-1.77a3.45,3.45,0,0,0-.1-1.17,1.21,1.21,0,0,0-.49-.69,1.9,1.9,0,0,0-.94-.26,6.64,6.64,0,0,0-1.46.1l-6.52,1c-.18,0-.27.11-.27.26Z"/><path class="cls-9" d="M48.71,97.07a4.53,4.53,0,0,1,3.23.32,2.5,2.5,0,0,1,.88,2.32l0,.92a3.82,3.82,0,0,1-.8,2.3,4.51,4.51,0,0,1-2.31,1.39l3.23,2.88c.07,0,.08.12,0,.23s-.14.18-.33.21l-2.56.41a.83.83,0,0,1-.35,0,.76.76,0,0,1-.2-.13l-3-2.86-6.42,1L40,109.29q0,.36-.45.42l-2.15.34c-.3,0-.45,0-.44-.28l.5-10.44c0-.32.23-.51.62-.58Zm-8.51,7.05,7.61-1.2a2.69,2.69,0,0,0,1.45-.58,1.62,1.62,0,0,0,.47-1.15l0-.67a1.11,1.11,0,0,0-.36-1A2.06,2.06,0,0,0,48,99.37l-7.35,1.16q-.26,0-.27.24Z"/><path class="cls-9" d="M64.64,94.56l.8-.1a1.87,1.87,0,0,1,.55.05,1.65,1.65,0,0,1,.44.22,3.91,3.91,0,0,1,.47.41l7,6.7a.23.23,0,0,0,.25.07l.18,0a.18.18,0,0,0,.17-.18l.4-8.41q0-.36.45-.42l2.09-.33c.29-.05.43,0,.42.28l-.44,9.25a2,2,0,0,1-.5,1.4,2.63,2.63,0,0,1-1.37.55l-1.71.27a7.2,7.2,0,0,1-.76.09,1.9,1.9,0,0,1-.55,0,1.52,1.52,0,0,1-.45-.21,4,4,0,0,1-.5-.42l-7-6.69a.29.29,0,0,0-.25-.08l-.18,0a.18.18,0,0,0-.16.19l-.41,8.41q0,.34-.45.42l-2.09.33c-.31.05-.45,0-.44-.28L61,96.79a1.94,1.94,0,0,1,.5-1.4,2.59,2.59,0,0,1,1.36-.56Z"/><path class="cls-9" d="M83.14,91.64c.3,0,.44,0,.43.28l-.21,4.29,2.8-.44c.32,0,.58-.1.8-.15a3.33,3.33,0,0,0,.56-.19,2.21,2.21,0,0,0,.45-.3,5.79,5.79,0,0,0,.43-.43L92,90.45a.9.9,0,0,1,.21-.19,1.09,1.09,0,0,1,.37-.11l2.47-.39c.17,0,.27,0,.3.09a.26.26,0,0,1-.06.26l-4.05,4.65c-.24.28-.46.52-.66.73A7.23,7.23,0,0,1,90,96a4,4,0,0,1,1.46.92l3.87,3.54a.26.26,0,0,1,.05.24c0,.12-.13.19-.33.22l-2.54.4a.88.88,0,0,1-.36,0,.5.5,0,0,1-.19-.13L88.48,98a1.57,1.57,0,0,0-.83-.44,4.43,4.43,0,0,0-1.36.06l-3,.48-.21,4.41c0,.24-.17.38-.46.43l-2.14.33c-.31,0-.45,0-.44-.28l.5-10.57c0-.23.17-.37.48-.42Z"/><path class="cls-9" d="M58.35,97.91l.1-2c0-.24-.13-.34-.42-.29l-2.15.34c-.31,0-.46.19-.47.42l-.1,2Z"/><path class="cls-9" d="M56.16,99.18a1.13,1.13,0,0,0-.94,1.06l-.32,6.69c0,.24.13.33.44.28l2.14-.33c.29,0,.45-.19.46-.43l.36-7.6Z"/><path class="cls-9" d="M110.9,6.05,72.56,12.29l1.67-5.51-49,7.77h0A25.68,25.68,0,1,0,54.26,33.62L32.59,37.21l-4.3,14,9-1.5a12.6,12.6,0,0,1-20.55-9.46v-.46A12.49,12.49,0,0,1,27.35,27.72L38.14,26l11.51-1.82,3-.48-2,6.61,8.69-1.41,0,32L70.58,55.5V27l4.57-.72-1.46,4.77Z"/><path class="cls-10" d="M17.77,85.64c.31,0,.45,0,.44.28l-.07,1.53c0,.23-.17.38-.47.42L9,89.24a7.2,7.2,0,0,0-1.29.31,2.3,2.3,0,0,0-.83.48,1.7,1.7,0,0,0-.46.75,4.36,4.36,0,0,0-.17,1.07V92l11.23-1.77c.29,0,.43.05.42.29l-.06,1.27q0,.36-.45.42L6.13,94v.28a3.58,3.58,0,0,0,.06,1,1,1,0,0,0,.4.61,1.52,1.52,0,0,0,.8.23A6.26,6.26,0,0,0,8.65,96l8.69-1.37c.3,0,.45,0,.44.28l-.08,1.53c0,.24-.17.38-.47.43L8.49,98.29a12.27,12.27,0,0,1-2.56.18A3.63,3.63,0,0,1,4.25,98a2.19,2.19,0,0,1-.91-1.17,5.07,5.07,0,0,1-.21-1.93l.13-2.77a6.23,6.23,0,0,1,.4-2,3.91,3.91,0,0,1,1-1.47,5.76,5.76,0,0,1,1.75-1A13.87,13.87,0,0,1,9,87Z"/><path class="cls-10" d="M24.05,84.65a6,6,0,0,1,.8-.1,1.87,1.87,0,0,1,.55,0,1.65,1.65,0,0,1,.44.22,3.91,3.91,0,0,1,.47.41l7,6.7a.25.25,0,0,0,.25.07l.18,0a.19.19,0,0,0,.17-.19l.4-8.4c0-.24.16-.38.45-.43l2.09-.33c.29,0,.43,0,.42.29l-.44,9.24a2,2,0,0,1-.5,1.4,2.55,2.55,0,0,1-1.37.56l-1.71.27a7.06,7.06,0,0,1-.77.09,1.86,1.86,0,0,1-.54,0,1.52,1.52,0,0,1-.45-.21,3.41,3.41,0,0,1-.5-.43L24,87.1a.32.32,0,0,0-.25-.07l-.18,0a.19.19,0,0,0-.17.19l-.4,8.4c0,.24-.16.38-.45.43l-2.09.33c-.31,0-.45,0-.44-.29l.45-9.24a1.92,1.92,0,0,1,.5-1.4,2.56,2.56,0,0,1,1.36-.56Z"/><path class="cls-10" d="M54.1,79.91c.31,0,.45,0,.44.28l-.07,1.53c0,.23-.17.38-.48.43l-8.68,1.37a7.28,7.28,0,0,0-1.29.3,2.63,2.63,0,0,0-.83.48,1.7,1.7,0,0,0-.46.75,4.44,4.44,0,0,0-.17,1.07v.16l11.23-1.77c.29,0,.43,0,.42.29l-.06,1.27q0,.36-.45.42L42.46,88.26l0,.28a3.92,3.92,0,0,0,.07,1,1,1,0,0,0,.4.61,1.48,1.48,0,0,0,.79.23,6.3,6.3,0,0,0,1.28-.1l8.69-1.37c.3,0,.45,0,.44.28L54,90.76c0,.23-.17.37-.47.42l-8.75,1.38a12.14,12.14,0,0,1-2.55.18,3.48,3.48,0,0,1-1.68-.46,2.19,2.19,0,0,1-.91-1.17,5.23,5.23,0,0,1-.22-1.92l.14-2.78a6,6,0,0,1,.4-2,3.91,3.91,0,0,1,1-1.47,5.76,5.76,0,0,1,1.75-1,13.17,13.17,0,0,1,2.58-.63Z"/><path class="cls-10" d="M68.11,77.7a4.51,4.51,0,0,1,3.24.32,2.47,2.47,0,0,1,.87,2.32l0,.92a3.84,3.84,0,0,1-.8,2.3A4.56,4.56,0,0,1,69.06,85l3.24,2.88c.06,0,.08.12,0,.23s-.14.18-.33.21l-2.56.4a.88.88,0,0,1-.36,0,.43.43,0,0,1-.19-.13l-3-2.85-6.42,1-.15,3.21c0,.23-.16.37-.46.42l-2.14.34c-.31,0-.45-.05-.44-.28L56.82,80c0-.33.22-.52.62-.58Zm-8.5,7,7.61-1.2A2.57,2.57,0,0,0,68.67,83a1.66,1.66,0,0,0,.47-1.14l0-.68a1.09,1.09,0,0,0-.37-1A2,2,0,0,0,67.39,80L60,81.16q-.27,0-.27.24Z"/><path class="cls-10" d="M90,74.25c.29,0,.43,0,.42.29l-.07,1.58c0,.24-.17.39-.46.44l-10,1.57a7.28,7.28,0,0,0-1.29.3,2.47,2.47,0,0,0-.82.48,1.82,1.82,0,0,0-.46.74,3.91,3.91,0,0,0-.18,1.08L77,83.05a3.32,3.32,0,0,0,.07,1,1,1,0,0,0,.4.61,1.44,1.44,0,0,0,.78.23,6.3,6.3,0,0,0,1.28-.1l6.56-1a1.35,1.35,0,0,0,.76-.34,1.18,1.18,0,0,0,.28-.8l.06-1.31c0-.13-.07-.19-.23-.17l-5.82.92q-.44.08-.42-.3l.06-1.21c0-.25.16-.39.46-.44l8.28-1.3c.4-.07.59.06.58.38L90,83a3,3,0,0,1-.73,2,3.29,3.29,0,0,1-1.86.84l-8,1.27a12.14,12.14,0,0,1-2.55.18,3.48,3.48,0,0,1-1.68-.47,2.13,2.13,0,0,1-.91-1.16A5.26,5.26,0,0,1,74,83.74L74.11,81a6,6,0,0,1,.4-2,3.91,3.91,0,0,1,1-1.47,5.56,5.56,0,0,1,1.75-1,13.12,13.12,0,0,1,2.58-.64Z"/><path class="cls-10" d="M94.7,73.5a.51.51,0,0,1,.47.12l5,5,5.62-6.66a.79.79,0,0,1,.49-.27l2.6-.41c.11,0,.18,0,.21.07s0,.14,0,.23l-7.5,8.63-.15,3.09q0,.36-.45.42L98.83,84c-.31,0-.45,0-.44-.28l.15-3.09-6.7-6.4a.17.17,0,0,1,0-.21.28.28,0,0,1,.23-.14Z"/><path class="cls-10" d="M28.09,99.41a12.56,12.56,0,0,1,2.75-.17,4,4,0,0,1,1.85.53,2.39,2.39,0,0,1,1,1.24,5,5,0,0,1,.25,2l-.11,2.19a5.89,5.89,0,0,1-.44,2.09,4.51,4.51,0,0,1-1.15,1.59A6.29,6.29,0,0,1,30.32,110a13.72,13.72,0,0,1-2.78.7l-9.3,1.47q-.6.09-.57-.39l.5-10.31c0-.33.22-.52.62-.58Zm-7.28,9.91c0,.14.07.2.24.17l6.52-1a7.64,7.64,0,0,0,1.48-.36,3,3,0,0,0,1-.57,2,2,0,0,0,.57-.86,4.17,4.17,0,0,0,.21-1.21l.09-1.78a3.62,3.62,0,0,0-.1-1.16,1.19,1.19,0,0,0-.49-.69,1.84,1.84,0,0,0-.95-.27,7.32,7.32,0,0,0-1.46.1l-6.52,1a.28.28,0,0,0-.27.27Z"/><path class="cls-10" d="M47.92,96.29a4.51,4.51,0,0,1,3.24.32A2.48,2.48,0,0,1,52,98.93l0,.92a3.91,3.91,0,0,1-.8,2.3,4.56,4.56,0,0,1-2.32,1.39l3.24,2.88c.06,0,.08.12,0,.23s-.14.18-.32.21l-2.56.4a.88.88,0,0,1-.36,0,.43.43,0,0,1-.19-.13l-3-2.85-6.42,1-.15,3.2c0,.24-.17.38-.46.43l-2.14.34c-.31,0-.45,0-.44-.29l.5-10.43c0-.33.22-.52.62-.58Zm-8.5,7,7.61-1.2a2.58,2.58,0,0,0,1.44-.58,1.61,1.61,0,0,0,.47-1.14l0-.68a1.09,1.09,0,0,0-.37-1,2,2,0,0,0-1.41-.13l-7.36,1.16c-.17,0-.26.1-.26.23Z"/><path class="cls-10" d="M63.86,93.77a7.64,7.64,0,0,1,.79-.09,1.56,1.56,0,0,1,.55,0,1.3,1.3,0,0,1,.44.22,3.78,3.78,0,0,1,.48.41l7,6.69a.24.24,0,0,0,.25.07l.18,0a.18.18,0,0,0,.17-.19l.41-8.41q0-.34.45-.42l2.09-.33c.29,0,.43,0,.42.29l-.45,9.24a2,2,0,0,1-.5,1.4,2.59,2.59,0,0,1-1.37.56l-1.71.27a6.91,6.91,0,0,1-.76.09,1.84,1.84,0,0,1-.54,0,1.51,1.51,0,0,1-.45-.2,3.42,3.42,0,0,1-.51-.43l-7-6.69a.3.3,0,0,0-.25-.07l-.18,0a.18.18,0,0,0-.17.18l-.4,8.41c0,.24-.17.38-.46.42l-2.09.33c-.3,0-.45,0-.44-.28L60.24,96a1.94,1.94,0,0,1,.5-1.39,2.52,2.52,0,0,1,1.37-.56Z"/><path class="cls-10" d="M82.36,90.85c.29,0,.43.05.42.29l-.21,4.28L85.38,95c.31,0,.58-.1.79-.15a2.62,2.62,0,0,0,.56-.19,2.66,2.66,0,0,0,.45-.29,6.07,6.07,0,0,0,.44-.44l3.59-4.24a1,1,0,0,1,.21-.2,1.23,1.23,0,0,1,.38-.1L94.26,89c.18,0,.28,0,.31.08a.29.29,0,0,1-.07.26l-4,4.65a8.47,8.47,0,0,1-.65.73c-.2.2-.4.38-.59.54a4.12,4.12,0,0,1,1.45.92l3.88,3.55s.06.12,0,.24-.12.19-.32.22l-2.55.4a.83.83,0,0,1-.35,0,.46.46,0,0,1-.19-.13l-3.48-3.26a1.62,1.62,0,0,0-.82-.44,4.57,4.57,0,0,0-1.37.07l-3,.47-.21,4.42q0,.35-.45.42l-2.15.34c-.3,0-.45,0-.44-.28l.51-10.57c0-.24.17-.38.47-.43Z"/><path class="cls-10" d="M57.56,97.13l.1-2c0-.24-.13-.33-.42-.28l-2.15.33c-.3,0-.46.19-.47.43l-.1,2Z"/><path class="cls-10" d="M55.38,98.4a1.12,1.12,0,0,0-1,1l-.32,6.7c0,.23.14.33.44.28l2.15-.34q.44-.07.45-.42l.37-7.61Z"/><path class="cls-11" d="M109.76,4.91,71.42,11.15l1.67-5.51-49,7.77h0A25.72,25.72,0,1,0,53.12,32.48l-21.67,3.6-4.3,14,9-1.5A12.6,12.6,0,0,1,15.6,39.11v-.46A12.47,12.47,0,0,1,26.21,26.59L37,24.87l11.51-1.82,3-.48-2,6.61,8.69-1.41,0,32,11.28-5.39V25.9L74,25.18,72.55,30Z"/></svg>