<svg id="Layer_1" data-name="Layer 1" xmlns="http://www.w3.org/2000/svg" viewBox="0 0 24.83 19.11"><defs><style>.cls-1{fill:#f05822;}</style></defs><path class="cls-1" d="M12.48,0C15.64,0,18.8,0,22,0a4.8,4.8,0,0,1,1.45.25,2.13,2.13,0,0,1,1.36,1.49.65.65,0,0,1-.21.76,3.58,3.58,0,0,1-.39.29c-3.68,2.33-7.37,4.65-11,7a1.22,1.22,0,0,1-1.47,0C8,7.43,4.27,5.09.57,2.73a3.15,3.15,0,0,1-.33-.22A.57.57,0,0,1,0,1.87,2.29,2.29,0,0,1,2.2.06c.5,0,1,0,1.52,0Zm9.34,19.1a7.4,7.4,0,0,0,.94-.05,2.32,2.32,0,0,0,1.89-1.3c.32-.67.23-1-.4-1.36l-4.87-3.06-3.79-2.42a.74.74,0,0,0-.9-.06L12.92,12a.76.76,0,0,1-1,0c-.51-.33-1-.66-1.54-1a1,1,0,0,0-1.22,0l-6.05,3.8L.41,16.5c-.27.17-.48.37-.39.72a2.14,2.14,0,0,0,1.39,1.65,4.26,4.26,0,0,0,1.33.22c3.22,0,6.43,0,9.65,0ZM.05,4.44V14.69L8.11,9.56ZM24.79,14.69V4.44l-8,5.12Z"/></svg>