<svg id="Layer_1" data-name="Layer 1" xmlns="http://www.w3.org/2000/svg" viewBox="0 0 21.76 25.09"><defs><style>.cls-1{fill:#f05822;}</style></defs><path class="cls-1" d="M8,3.79c0,.89,0,1.78,0,2.67a1.16,1.16,0,0,1-.56,1.08,10,10,0,0,1-1.13.58c-.29.13-.59.24-.89.36a.93.93,0,0,0-.65,1,7,7,0,0,0,.33,1.57A24.15,24.15,0,0,0,8,16.89,5.46,5.46,0,0,0,9.56,18.4a1.78,1.78,0,0,0,1.78.17l1.86-.83c.69-.31,1-.28,1.52.27,1.1,1.2,2.18,2.42,3.27,3.62a1.16,1.16,0,0,1-.13,1.76,6.27,6.27,0,0,1-3.12,1.52,8.3,8.3,0,0,1-7-1.76,17.12,17.12,0,0,1-4.12-5A28.79,28.79,0,0,1,.89,12.27,15.12,15.12,0,0,1,.1,5.6,6.31,6.31,0,0,1,1.38,2.25,5.78,5.78,0,0,1,7,.09a1,1,0,0,1,.9,1.07V3.79ZM21.24,7.55a9.54,9.54,0,0,0-7-6.32A13.84,13.84,0,0,0,12,1a.55.55,0,0,0-.62.53.58.58,0,0,0,.55.63,2.66,2.66,0,0,0,.28,0,8.35,8.35,0,0,1,6.22,2.89,8.52,8.52,0,0,1,.17,11c-.22.26-.46.5-.68.76a.57.57,0,0,0,0,.82.59.59,0,0,0,.82,0,1.21,1.21,0,0,0,.16-.16,9.54,9.54,0,0,0,2.82-6.59A9.7,9.7,0,0,0,21.24,7.55Zm-7.7-3.24A8.62,8.62,0,0,0,12,4.15a.58.58,0,0,0-.61.55.61.61,0,0,0,.56.61c.1,0,.21,0,.31,0A5.13,5.13,0,0,1,16,7.13a5.21,5.21,0,0,1,1.19,4.78,5,5,0,0,1-1.29,2.39c-.06.06-.11.13-.16.19a.6.6,0,1,0,.88.79,6.42,6.42,0,0,0,1.93-4.4A6.6,6.6,0,0,0,13.54,4.31Zm-1.38,3c-.42,0-.68.18-.71.52s.21.6.63.65l.15,0a2.13,2.13,0,0,1,2,2.11,2.19,2.19,0,0,1-.58,1.52.61.61,0,0,0,0,.89.59.59,0,0,0,.89-.12,3.24,3.24,0,0,0,.89-2.15A3.35,3.35,0,0,0,12.16,7.33Z"/></svg>