<svg id="Component_11_2" data-name="Component 11 – 2" xmlns="http://www.w3.org/2000/svg" width="36.436" height="25.505" viewBox="0 0 36.436 25.505">
  <path id="Path_2076" data-name="Path 2076" d="M782.083,436.767a8,8,0,0,0-8-8H753.642a8,8,0,0,0-8,8v9.514a8,8,0,0,0,8,8h20.445a8,8,0,0,0,8-8Zm-12.024,5.47-9.168,4.536c-.36.195-1.581-.066-1.581-.474v-9.311c0-.414,1.231-.674,1.591-.469l8.776,4.774C770.045,441.5,770.431,442.035,770.059,442.237Z" transform="translate(-745.647 -428.772)" fill="#f15822"/>
</svg>
